<?xml version="1.0" encoding="UTF-8"?>
<svg width="100pt" height="100pt" version="1.1" viewBox="0 0 100 100" xmlns="http://www.w3.org/2000/svg">
 <g>
  <path d="m88.109 94.359 6.25-6.25 2.9453 2.9453-6.25 6.25z"/>
  <path d="m93.707 100c-1.668 0.003906-3.2695-0.66016-4.4492-1.8398l-11.902-11.91c-0.81641-0.8125-0.81641-2.1328 0-2.9453l5.9492-5.9531c0.82422-0.78125 2.1172-0.78125 2.9453 0l11.906 11.906c1.8008 1.7969 2.3398 4.5039 1.3672 6.8594-0.97266 2.3516-3.2695 3.8828-5.8164 3.8828zm-11.934-15.207 10.43 10.414c0.60938 0.60938 1.5234 0.78906 2.3164 0.46094s1.3125-1.1016 1.3125-1.9609c0.003907-0.5625-0.22266-1.1055-0.625-1.5l-10.434-10.434z"/>
  <path d="m71.445 74.391 2.9453-2.9453 8.332 8.332-2.9453 2.9453z"/>
  <path d="m39.582 100h-33.332c-3.4531 0-6.25-2.7969-6.25-6.25v-33.332c0-3.4531 2.7969-6.25 6.25-6.25h22.996c0.72656-9.5391 6.4297-17.988 15.008-22.227 8.5742-4.2383 18.75-3.6367 26.77 1.582 8.0195 5.2188 12.688 14.277 12.285 23.836-0.32812 8.168-4.332 15.75-10.891 20.629-6.5547 4.8789-14.965 6.5352-22.887 4.5117-7.918-2.0273-14.496-7.5234-17.902-14.953l3.7891-1.7422c1.832 3.9883 4.7695 7.3672 8.4648 9.7344 3.6953 2.3672 7.9883 3.625 12.379 3.6289h0.43359c5.8164-0.17969 11.352-2.5391 15.512-6.6094 4.1562-4.0703 6.6367-9.5547 6.9414-15.363 0.25-6.1523-1.9883-12.145-6.207-16.629s-10.062-7.0859-16.219-7.2109c-6.1562-0.12891-12.105 2.2266-16.504 6.5352s-6.8789 10.203-6.8867 16.359c0 0.55078-0.21875 1.082-0.60938 1.4727s-0.92188 0.60938-1.4727 0.60938h-25c-1.1523 0-2.082 0.93359-2.082 2.0859v33.332c0 0.55078 0.21875 1.082 0.60938 1.4727s0.92188 0.60938 1.4727 0.60938h33.332c0.55469 0 1.082-0.21875 1.4727-0.60938 0.39062-0.39062 0.61328-0.92188 0.61328-1.4727v-10.418h4.168v10.418h-0.003907c0 3.4531-2.7969 6.25-6.25 6.25z"/>
  <path d="m18.75 72.918h-8.332c-1.1523 0-2.0859-0.93359-2.0859-2.0859v-14.582h4.168v12.5h4.168v-12.5h4.168v14.582h-0.003907c0 0.55469-0.21875 1.082-0.60938 1.4727-0.39062 0.39062-0.92188 0.61328-1.4727 0.61328z"/>
  <path d="m29.168 79.168h8.332v4.168h-8.332z"/>
  <path d="m29.168 87.5h8.332v4.168h-8.332z"/>
  <path d="m52.082 66.668c-0.55078 0-1.082-0.22266-1.4727-0.61328l-8.332-8.332 2.9453-2.9453 6.8594 6.8594 15.195-15.195 2.9453 2.9453-16.668 16.668c-0.39063 0.39062-0.91797 0.61328-1.4727 0.61328z"/>
  <path d="m89.582 18.75h-6.25c-1.1484 0-2.082-0.93359-2.082-2.082v-14.586c0-0.83984 0.50781-1.6016 1.2852-1.9219 0.78125-0.32422 1.6758-0.14453 2.2695 0.44922l14.582 14.582-2.9414 2.9492-11.027-11.027v7.4688h4.168z"/>
  <path d="m93.75 64.582h-12.5v-4.1641h12.5c0.55078 0 1.082-0.22266 1.4727-0.61328 0.39062-0.39063 0.60938-0.91797 0.60938-1.4727v-40.805l-13.359-13.359h-26.223c-1.1523 0-2.082 0.92969-2.082 2.082v25h-4.168v-25c0-3.4531 2.7969-6.25 6.25-6.25h27.082c0.55469 0 1.082 0.21875 1.4727 0.60938l14.586 14.586c0.39062 0.39063 0.60938 0.91797 0.60938 1.4727v41.664c0 3.4531-2.7969 6.25-6.25 6.25z"/>
  <path d="m12.5 45.832h4.168v4.168h-4.168z"/>
  <path d="m16.668 41.668h-4.168v-12.5c0.007812-5.75 4.668-10.41 10.418-10.418h9.5547l-2.6953-2.6953 2.9453-2.9453 6.25 6.25c0.59766 0.59766 0.77344 1.4922 0.45312 2.2695-0.32422 0.78125-1.082 1.2891-1.9258 1.2891h-14.582c-3.4531 0-6.25 2.7969-6.25 6.25z"/>
  <path d="m29.777 25.609 6.25-6.25 2.9453 2.9453-6.25 6.25z"/>
  <path d="m58.332 8.332h12.5v4.168h-12.5z"/>
  <path d="m58.332 16.668h12.5v4.168h-12.5z"/>
 </g>
</svg>
